HIERARCHY
ROOT Hips
{
  OFFSET 267.745 86.9975 -272.335
  CHANNELS 6 Xposition Yposition Zposition Zrotation Xrotation Yrotation
  JOINT LeftUpLeg
  {
    OFFSET 8.64259 1.95398 -2.38835
    CHANNELS 3 Zrotation Xrotation Yrotation
    JOINT LeftLeg
    {
      OFFSET 43.7702 0 0
      CHANNELS 3 Zrotation Xrotation Yrotation
      JOINT LeftFoot
      {
        OFFSET 40.6238 0 0
        CHANNELS 3 Zrotation Xrotation Yrotation
        JOINT LeftToeBase
        {
          OFFSET 12.7242 0 0
          CHANNELS 3 Zrotation Xrotation Yrotation
          End Site
          {
            OFFSET 0 0 0
          }
        }
      }
    }
  }
  JOINT RightUpLeg
  {
    OFFSET -8.2249 1.95398 -2.59336
    CHANNELS 3 Zrotation Xrotation Yrotation
    JOINT RightLeg
    {
      OFFSET 43.5653 0 0
      CHANNELS 3 Zrotation Xrotation Yrotation
      JOINT RightFoot
      {
        OFFSET 40.6238 0 0
        CHANNELS 3 Zrotation Xrotation Yrotation
        JOINT RightToeBase
        {
          OFFSET 12.7242 0 0
          CHANNELS 3 Zrotation Xrotation Yrotation
          End Site
          {
            OFFSET 0 0 0
          }
        }
      }
    }
  }
  JOINT Spine
  {
    OFFSET 0.165834 0.87714 6.61349
    CHANNELS 3 Zrotation Xrotation Yrotation
    JOINT Spine1
    {
      OFFSET 7.38963 1.71661e-005 0
      CHANNELS 3 Zrotation Xrotation Yrotation
      JOINT Spine2
      {
        OFFSET 11.9445 1.14441e-005 0
        CHANNELS 3 Zrotation Xrotation Yrotation
        JOINT Spine3
        {
          OFFSET 14.7254 4.19617e-005 0
          CHANNELS 3 Zrotation Xrotation Yrotation
          JOINT Spine4
          {
            OFFSET 10.9679 0 0
            CHANNELS 3 Zrotation Xrotation Yrotation
            JOINT RightShoulder
            {
              OFFSET 2.46616 -1.6653 3.69651
              CHANNELS 3 Zrotation Xrotation Yrotation
              JOINT RightArm
              {
                OFFSET 13.0012 0 0
                CHANNELS 3 Zrotation Xrotation Yrotation
                JOINT RightForeArm
                {
                  OFFSET 28.7848 1.52588e-005 0
                  CHANNELS 3 Zrotation Xrotation Yrotation
                  JOINT RightHand
                  {
                    OFFSET 26.5688 1.52588e-005 0
                    CHANNELS 3 Zrotation Xrotation Yrotation
                    End Site
                    {
                      OFFSET 0 0 0
                    }
                  }
                }
              }
            }
            JOINT LeftShoulder
            {
              OFFSET 2.38034 -1.29275 -3.7523
              CHANNELS 3 Zrotation Xrotation Yrotation
              JOINT LeftArm
              {
                OFFSET 16.3182 6.10352e-005 0
                CHANNELS 3 Zrotation Xrotation Yrotation
                JOINT LeftForeArm
                {
                  OFFSET 27.0901 0 0
                  CHANNELS 3 Zrotation Xrotation Yrotation
                  JOINT LeftHand
                  {
                    OFFSET 24.5451 1.52588e-005 0
                    CHANNELS 3 Zrotation Xrotation Yrotation
                    End Site
                    {
                      OFFSET 0 0 0
                    }
                  }
                }
              }
            }
            JOINT Neck
            {
              OFFSET 5.0226 -0.0266342 0
              CHANNELS 3 Zrotation Xrotation Yrotation
              JOINT Head
              {
                OFFSET 6.69364 2.86102e-005 0
                CHANNELS 3 Zrotation Xrotation Yrotation
                End Site
                {
                  OFFSET 0 0 0
                }
              }
            }
          }
        }
      }
    }
  }
}
MOTION
Frames:	17
Frame Time:	0.0416667
-280.228 55.4084 -249.462 99.2865 5.51842 88.1631 -169.74 15.111 111.31 -3.44883 -33.3038 111.827 -4.2796 -25.8071 144.754 -52.8268 -14.0541 24.2872 -125.889 29.5534 37.5979 -96.3469 -8.98269 -35.1521 81.568 -17.0611 44.4255 88.5006 12.2034 58.3367 -4.13409 5.05265 -89.5171 16.8989 -7.89851 2.34738 5.2504 -7.78729 2.70248 -17.4796 -8.23749 -0.147459 2.53301 -8.23749 -0.147455 127.418 -35.355 -35.9995 25.2554 -42.4336 63.6038 -4.42245 14.4828 -151.538 -6.58455 -4.53475 69.0393 -51.8451 -71.6985 127.905 -113.43 27.5378 138.274 77.6263 -25.2476 -52.0621 87.197 -23.2874 -27.7444 66.8143 -5.65529 -10.543 -9.54634 14.879 111.68 
-281.01 55.8578 -250.086 99.3871 5.57366 88.0626 -164.586 10.8772 107.875 22.3154 -13.2738 120.539 0.739459 -6.88202 159.733 -54.0445 -14.9393 24.8464 -126.03 29.1295 38.489 -97.1656 -9.11626 -35.5692 81.7241 -17.7115 43.5827 89.3117 11.8451 57.093 -4.14859 5.06593 -89.5183 16.8731 -7.92836 2.34755 5.22453 -7.81715 2.70268 -17.5069 -8.26588 -0.156779 2.50578 -8.26589 -0.156783 127.346 -35.2608 -36.0643 24.7438 -42.4195 63.4684 -4.29165 14.1275 -151.776 -6.59146 -4.49512 68.4836 -50.9882 -72.3721 128.703 -113.199 27.3754 138.37 77.5296 -25.3326 -51.9407 87.6057 -23.4552 -27.7507 60.8887 6.61889 -8.69753 -10.0828 24.8249 111.117 
-283.239 57.1234 -251.863 99.6803 5.73109 87.769 -154.462 1.27926 104.737 138.523 20.0457 78.8182 -131.522 62.0536 -74.9242 -57.1968 -17.922 26.7741 -126.336 27.7736 41.0796 -99.729 -9.56727 -36.6791 81.9944 -19.5592 40.864 91.6242 10.6966 53.501 -4.19097 5.10478 -89.5223 16.7971 -8.01564 2.34806 5.14864 -7.90443 2.70325 -17.5869 -8.34869 -0.184757 2.42576 -8.34869 -0.184756 127.141 -34.9937 -36.2489 23.1934 -42.3677 63.0164 -3.90664 13.0553 -152.457 -6.61392 -4.38886 66.9585 -48.1202 -74.3421 131.386 -112.473 26.9221 138.608 77.1784 -25.648 -51.6365 88.789 -24.0063 -27.8277 60.2361 6.45663 -6.81663 -5.31661 32.055 111.123 
-286.691 58.9963 -254.611 100.153 5.97623 87.2945 -149.816 -4.01533 106.248 114.973 16.4562 82.6103 -82.4822 60.1144 -119.706 -60.4949 -24.1366 31.081 -126.379 25.1527 45.2186 -104.421 -10.508 -38.0236 81.8049 -22.3045 35.6236 95.1652 8.54832 47.8324 -4.25949 5.16825 -89.5294 16.6729 -8.15725 2.34544 5.02495 -8.04608 2.70418 -17.7176 -8.48241 -0.232051 2.29502 -8.48241 -0.232047 126.827 -34.579 -36.5323 20.5083 -42.2452 62.112 -3.27168 11.2075 -153.521 -6.65681 -4.24519 64.7595 -41.7922 -77.5152 137.369 -111.135 26.2612 138.86 76.3418 -26.3967 -51.3421 90.6751 -25.1446 -28.1747 58.8213 8.16967 -3.3989 2.94563 44.1057 107.866 
-291.106 61.1546 -258.154 100.794 6.29276 86.6506 -149.551 -5.12185 109.799 94.9223 13.469 88.6759 -72.6406 55.0302 -134.812 -58.9579 -35.04 40.8301 -125.223 20.5752 50.6869 -111.627 -12.4514 -38.6155 80.314 -25.3526 26.9128 99.4956 5.11439 40.4366 -4.35148 5.25483 -89.5394 16.5031 -8.34771 2.33811 4.85632 -8.23674 2.70547 -17.8962 -8.66165 -0.297581 2.11644 -8.66167 -0.297583 126.428 -34.0362 -36.8861 16.5576 -41.9828 60.584 -2.38858 8.48549 -154.883 -6.72399 -4.09118 62.1848 -26.389 -81.5867 152.211 -109.044 25.4687 138.969 74.5229 -28.0069 -51.4129 93.1327 -27.3621 -29.2301 58.9931 10.2191 -0.23828 12.1813 53.2493 101.13 
-296.251 63.2241 -262.369 101.589 6.66174 85.8472 -149.158 -6.08994 114.616 -85.9268 -7.70526 90.5147 -80.6635 -44.5377 75.0759 -38.8494 -47.4472 66.0752 -121.201 13.3018 57.3957 -121.157 -16.741 -36.9503 76.8622 -27.7701 14.0657 103.953 0.161089 31.7217 -4.46024 5.36122 -89.549 16.2941 -8.57202 2.33188 4.64885 -8.46106 2.7093 -18.1157 -8.87351 -0.372494 1.897 -8.8735 -0.372495 125.97 -33.3637 -37.2712 11.3117 -41.4685 58.3444 -1.27397 4.80806 -156.432 -6.81586 -3.94253 59.4534 21.548 -84.6507 -160.702 -106.183 24.4665 138.867 70.7347 -31.3205 -52.4724 95.7073 -31.6543 -31.9542 60.9445 5.94985 3.42558 29.1742 67.0808 87.0828 
-302.229 64.5394 -267.602 102.526 7.06279 84.895 -148.372 -6.94516 120.422 -113.265 -1.86362 90.6715 -85.9558 -49.1013 50.23 4.71679 -40.7394 106.309 -112.761 3.46504 65.1147 -131.011 -25.1659 -32.3394 72.712 -28.8485 -1.22616 107.41 -5.9108 22.6131 -4.56746 5.48152 -89.547 16.0576 -8.78812 2.34317 4.4137 -8.67646 2.73031 -18.3626 -9.08277 -0.428229 1.65002 -9.08277 -0.428236 125.486 -32.5224 -37.6054 5.03512 -40.5707 55.5529 0.0228217 0.194242 -158.031 -6.9282 -3.80492 56.7015 80.1195 -81.2879 -103.324 -102.876 22.7206 138.85 62.4577 -38.1229 -56.2177 96.199 -39.9794 -39.1647 18.4947 82.3133 37.1582 9.70143 -7.74233 93.2438 
-309.202 65.2702 -274.096 103.587 7.47464 83.8065 -147.247 -7.50628 126.412 -72.981 2.56953 88.411 -35.6245 -17.0606 122.65 32.5152 -13.8916 117.237 -102.931 -4.74295 72.7231 -138.164 -34.7711 -26.592 70.5612 -30.2692 -13.3106 108.325 -11.0196 15.3582 -4.6429 5.61413 -89.516 15.796 -8.92762 2.3963 4.15294 -8.81349 2.78964 -18.6312 -9.2316 -0.420562 1.38146 -9.23164 -0.420564 125.061 -31.498 -37.7273 -1.75941 -39.1927 52.582 1.43445 -5.2095 -159.538 -7.052 -3.67638 54.0028 100.028 -73.8314 -84.8814 -99.8796 19.0652 139.79 38.2114 -51.1557 -72.528 80.0907 -54.099 -64.9351 57.2657 45.8256 9.44158 28.6391 37.2608 77.9145 
-316.718 66.3607 -281.331 104.752 7.87569 82.5959 -145.946 -7.61559 132.489 -72.1612 8.11384 87.5731 -28.0426 1.98555 113.801 50.8923 7.84094 105.672 -98.3353 -7.96037 76.3726 -142.737 -37.9576 -21.4701 72.0243 -34.8894 -16.509 106.232 -13.0749 11.8081 -4.67939 5.76501 -89.4525 15.497 -8.97486 2.49497 3.85412 -8.85631 2.89029 -18.9327 -9.30626 -0.341052 1.07997 -9.30625 -0.341055 124.766 -30.3957 -37.5655 -8.885 -37.28 49.5561 2.97348 -11.3189 -160.835 -7.18105 -3.55428 51.3881 107.234 -64.9575 -79.1215 -98.0028 12.0084 142.544 -37.5147 -46.7895 -135.502 17.5246 -39.9604 -132.777 84.7773 -42.7778 23.0474 148.829 31.5869 -43.1908 
-324.598 67.6934 -289.246 105.999 8.24582 81.279 -144.673 -7.25518 138.593 -78.6703 14.0558 87.3765 -21.7191 10.8282 108.478 66.9877 17.3614 86.9471 -100.638 -7.85349 73.2593 -146.091 -30.969 -17.5362 80.9791 -42.634 -5.80067 101.664 -11.7218 12.5648 -5.85583 5.47884 -90.041 16.1022 -11.5818 1.80168 4.48173 -11.4912 2.31634 -18.4712 -11.5802 -1.81139 1.54147 -11.5802 -1.81139 119.119 -26.2897 -45.9236 -30.3322 -31.7374 34.3074 8.61804 -26.3439 -160.326 -7.57909 -3.56426 48.7397 124.764 -57.6569 -66.7396 -76.0431 30.5155 110.915 -86.5211 7.0496 -125.625 -10.8815 21.2529 -140.628 -163.016 -66.6339 128.581 140.594 -32.8147 -75.8797 
-332.493 69.1093 -297.568 107.306 8.56718 79.8734 -143.588 -6.47528 144.938 -80.4136 20.8243 86.7181 -17.5872 19.8682 101.372 80.1242 19.1134 68.3572 -105.351 -5.37141 65.9046 -149.55 -15.4432 -14.5809 102.636 -44.1662 23.1907 95.1208 -7.09363 18.6833 -6.07289 5.4509 -90.1075 16.1741 -12.0417 1.75897 4.55785 -11.9525 2.29477 -18.4275 -12.0052 -1.99601 1.58518 -12.0052 -1.99602 117.434 -22.9525 -47.5127 -39.1291 -26.3925 29.6886 12.3332 -35.8043 -159.39 -7.748 -3.4553 46.2282 131.156 -48.7942 -64.0262 -72.4986 28.5718 107.205 -129.906 30.6469 -110.127 -50.4756 53.8906 -101.919 -170.676 -69.1892 117.764 140.376 -36.0459 -74.2578 
-339.623 69.958 -305.664 108.644 8.82469 78.3994 -142.975 -5.4133 152.908 -67.7273 29.1537 78.8618 -19.0199 38.5921 91.0725 89.6288 17.0475 53.1877 -102.345 6.03419 54.6433 -152.147 2.60414 -12.8687 88.0009 -32.4297 63.1532 76.3606 7.37893 49.3461 -6.34196 5.39888 -90.2222 16.2884 -12.6283 1.6427 4.67811 -12.5435 2.20566 -18.351 -12.5285 -2.29116 1.66163 -12.5285 -2.29117 115.636 -19.1736 -49.2919 -47.5599 -19.4693 25.2752 17.7432 -45.7877 -156.63 -7.89196 -3.33589 43.7877 136.945 -39.9542 -62.4277 -67.4088 27.0876 101.937 -158.239 35.574 -92.7373 -85.8603 52.7804 -62.5812 -166.618 -69.09 118.291 136.515 -40.2453 -78.777 
-346.419 70.3696 -312.176 109.987 9.00722 76.8783 -143.957 -4.36365 163.917 146.298 -32.2197 128.496 -136.75 -65.8015 -71.855 95.0941 13.0329 41.254 -108.083 14.1492 47.3772 -140.968 27.659 -17.0643 -6.2781 -43.2096 45.4414 19.7198 -12.1546 82.4952 -6.59466 5.34401 -90.3442 16.4066 -13.1859 1.50907 4.80228 -13.1065 2.09802 -18.27 -13.0189 -2.59439 1.74265 -13.0189 -2.59439 113.999 -15.1657 -50.7936 -54.5418 -11.8344 22.0074 25.4467 -55.0667 -151.284 -7.97683 -3.19459 41.4444 141.174 -31.2449 -62.3478 -62.4306 25.9442 98.2486 -175.49 35.2978 -80.8814 -99.2375 45.9232 -45.6134 -160.803 -68.9269 120.551 131.919 -44.1817 -84.278 
-354.178 70.3492 -319.32 111.308 9.10842 75.3317 -145.846 -3.44169 178.051 163.314 -43.8889 156.567 -118.521 -65.5735 -73.1795 96.6696 8.85463 32.5482 -112.845 -12.1538 61.7036 -150.984 21.6418 -12.5646 4.92124 -32.2204 61.126 22.9077 -10.9912 89.9279 -6.82575 5.28918 -90.4654 16.5234 -13.7007 1.37115 4.9248 -13.6268 1.98421 -18.1886 -13.4671 -2.88867 1.82408 -13.4671 -2.88867 112.539 -11.0674 -51.9995 -60.0786 -4.16724 19.8685 36.5913 -62.8558 -142.192 -7.99867 -3.03575 39.2223 142.685 -22.8795 -64.0598 -58.0552 25.6109 98.0747 172.975 34.3032 -71.9606 -104.477 40.5295 -37.6679 -153.75 -68.6971 124.117 126.555 -47.6856 -90.704 
-364.479 69.6513 -328.331 112.582 9.12598 73.7807 -148.585 -2.78505 -172.433 178.542 -44.4313 177.927 -102.122 -67.9669 -72.0903 95.5781 5.63583 26.7507 -54.7529 -64.8795 157.503 -170.328 -57.4186 -9.38811 119.266 -51.4791 65.8041 82.3317 -6.78969 35.1663 -7.0324 5.23685 -90.5787 16.634 -14.1632 1.24078 5.04082 -14.0946 1.87561 -18.1106 -13.8678 -3.15972 1.90206 -13.8678 -3.15971 111.251 -7.01183 -52.9249 -64.3677 3.003 18.6796 52.2198 -68.4637 -128.316 -7.96723 -2.86819 37.1389 138.81 -15.2946 -68.0943 -56.7546 26.8144 105.653 163.789 34.825 -63.3067 -106.976 36.6884 -33.1778 -145.8 -68.3374 128.722 120.437 -50.6423 -97.9832 
-375.828 69.7577 -338.229 113.784 9.06099 72.2456 -151.346 -2.23185 -171.531 177.721 -39.4718 176.419 -80.9928 -73.981 -58.6313 93.3131 3.5654 23.191 -32.6513 -37.4801 -107.309 67.8172 -86.9608 -130.794 -15.2035 -77.9063 -149.893 102.501 -29.4664 -15.5175 -7.21347 5.18933 -90.6781 16.7343 -14.5683 1.12771 5.14597 -14.5043 1.78168 -18.0397 -14.2191 -3.39641 1.97296 -14.2191 -3.39641 110.121 -3.11817 -53.6096 -67.6481 9.35069 18.2213 71.5251 -71.4634 -110.476 -7.89986 -2.70149 35.2019 123.321 -9.12251 -75.3844 -67.8439 23.711 132.763 164.322 53.3549 -46.4999 -108.875 33.2186 -29.5125 -137.289 -67.7606 134.085 113.655 -52.9619 -105.984 
-386.921 70.4332 -347.949 114.893 8.9177 70.745 -153.9 -1.72312 -170.607 177.868 -36.1828 176.385 -54.8029 -75.7536 -39.1887 90.8298 2.34398 21.1261 -25.417 -48.2877 -83.1929 -164.681 -79.3605 -7.42253 38.3543 -73.5875 -99.0106 115.496 -35.6558 -13.9396 -7.36876 5.14865 -90.7596 16.8206 -14.9139 1.03875 5.23651 -14.8534 1.70909 -17.9792 -14.521 -3.59153 2.03349 -14.5209 -3.59152 109.128 0.52239 -54.1121 -70.1316 14.7337 18.2894 90.6072 -72.0862 -92.5948 -7.81439 -2.54294 33.4092 88.9088 -5.57988 -87.2773 59.1561 -64.3104 -40.9737 -9.57314 -48.8856 -0.0218313 -120.394 22.2318 -17.8817 -128.588 -66.8811 139.866 106.388 -54.5827 -114.487 
